<?xml version="1.0" encoding="UTF-8" standalone="no"?>
<svg
   width="16"
   height="16"
   fill="currentColor"
   class="bi bi-cart4"
   viewBox="0 0 16 16"
   version="1.1"
   id="svg1"
   sodipodi:docname="cart41.svg"
   inkscape:version="1.4 (86a8ad7, 2024-10-11)"
   xmlns:inkscape="http://www.inkscape.org/namespaces/inkscape"
   xmlns:sodipodi="http://sodipodi.sourceforge.net/DTD/sodipodi-0.dtd"
   xmlns="http://www.w3.org/2000/svg"
   xmlns:svg="http://www.w3.org/2000/svg">
  <defs
     id="defs1" />
  <sodipodi:namedview
     id="namedview1"
     pagecolor="#ffffff"
     bordercolor="#000000"
     borderopacity="0.25"
     inkscape:showpageshadow="2"
     inkscape:pageopacity="0.0"
     inkscape:pagecheckerboard="0"
     inkscape:deskcolor="#d1d1d1"
     inkscape:zoom="50.9375"
     inkscape:cx="8.009816"
     inkscape:cy="8"
     inkscape:window-width="1920"
     inkscape:window-height="1017"
     inkscape:window-x="-8"
     inkscape:window-y="-8"
     inkscape:window-maximized="1"
     inkscape:current-layer="svg1" />
  <path
     d="M0 2.5A.5.5 0 0 1 .5 2H2a.5.5 0 0 1 .485.379L2.89 4H14.5a.5.5 0 0 1 .485.621l-1.5 6A.5.5 0 0 1 13 11H4a.5.5 0 0 1-.485-.379L1.61 3H.5a.5.5 0 0 1-.5-.5M3.14 5l.5 2H5V5zM6 5v2h2V5zm3 0v2h2V5zm3 0v2h1.36l.5-2zm1.11 3H12v2h.61zM11 8H9v2h2zM8 8H6v2h2zM5 8H3.89l.5 2H5zm0 5a1 1 0 1 0 0 2 1 1 0 0 0 0-2m-2 1a2 2 0 1 1 4 0 2 2 0 0 1-4 0m9-1a1 1 0 1 0 0 2 1 1 0 0 0 0-2m-2 1a2 2 0 1 1 4 0 2 2 0 0 1-4 0"
     id="path1"
     style="fill:#ffffff" />
</svg>
