<?xml version="1.0" encoding="UTF-8" standalone="no"?>
<svg
   width="16"
   height="16"
   fill="currentColor"
   class="bi bi-door-open"
   viewBox="0 0 16 16"
   version="1.1"
   id="svg2"
   sodipodi:docname="door-open1.svg"
   inkscape:version="1.4 (86a8ad7, 2024-10-11)"
   xmlns:inkscape="http://www.inkscape.org/namespaces/inkscape"
   xmlns:sodipodi="http://sodipodi.sourceforge.net/DTD/sodipodi-0.dtd"
   xmlns="http://www.w3.org/2000/svg"
   xmlns:svg="http://www.w3.org/2000/svg">
  <defs
     id="defs2" />
  <sodipodi:namedview
     id="namedview2"
     pagecolor="#ffffff"
     bordercolor="#000000"
     borderopacity="0.25"
     inkscape:showpageshadow="2"
     inkscape:pageopacity="0.0"
     inkscape:pagecheckerboard="0"
     inkscape:deskcolor="#d1d1d1"
     inkscape:zoom="50.9375"
     inkscape:cx="8.009816"
     inkscape:cy="8"
     inkscape:window-width="1920"
     inkscape:window-height="1017"
     inkscape:window-x="-8"
     inkscape:window-y="-8"
     inkscape:window-maximized="1"
     inkscape:current-layer="svg2" />
  <path
     d="M8.5 10c-.276 0-.5-.448-.5-1s.224-1 .5-1 .5.448.5 1-.224 1-.5 1"
     id="path1"
     style="fill:#ffffff" />
  <path
     d="M 10.828,0.122 C 10.937423,0.21710513 11.00018,0.35502261 11,0.5 V 1 h 0.5 C 12.328427,1 13,1.6715729 13,2.5 V 15 h 1.5 c 0.666666,0 0.666666,1 0,1 h -13 c -0.66666638,0 -0.66666638,-1 0,-1 H 3 V 1.5 C 3.0000377,1.2509309 3.1833839,1.0398697 3.43,1.005 l 7,-1 c 0.14335,-0.02047203 0.288534,0.0222079 0.398,0.117 M 11.5,2 H 11 v 13 h 1 V 2.5 C 12,2.2238576 11.776142,2 11.5,2 M 4,1.934 V 15 h 6 V 1.077 Z"
     id="path2"
     sodipodi:nodetypes="cccsscsssscccccccccscccccc"
     style="fill:#ffffff" />
</svg>
